<svg class="globalLogo-container-svg" xmlns="http://www.w3.org/2000/svg" viewBox="0 0 301 32.1" aria-label="Nerdery Logo"><path d="M0 0v32h5.9V11.6l31.4 20.5V.2h-5.9v20.3zM45.2.2V32H79v-5.9H51.1V19h20.5v-5.9H51.1V6H79V.2zM124.3 10.9C124.3 5 119.5.2 113.6.2H86.9V32h5.9V21.6h17.6l7.2 10.4h7.1l-7.6-11c4.2-1.5 7.2-5.5 7.2-10.1m-5.9 0c0 2.7-2.2 4.8-4.8 4.8H92.8V6h20.8c2.6 0 4.8 2.2 4.8 4.9M178.4 32h33.7v-5.9h-27.9V19h20.5v-5.9h-20.5V6h27.9V.2h-33.7zM257.2 10.9C257.2 5 252.4.2 246.5.2h-26.7V32h5.9V21.6h17.6l7.2 10.4h7.1L250 21c4.3-1.5 7.2-5.5 7.2-10.1m-5.8 0c0 2.7-2.2 4.8-4.8 4.8h-20.8V6h20.8c2.6 0 4.8 2.2 4.8 4.9M155.7.2h-23.3V32h23.3c8.8 0 15.9-7.1 15.9-15.9-.1-8.8-7.2-15.9-15.9-15.9m10 15.9c0 5.5-4.5 10-10 10h-17.4V6h17.4c5.5 0 10 4.5 10 10.1M293 .2l-13.2 14.2L266.6.2h-8l18.3 19.6V32h5.8V19.8L301 .2zM296.6 28.2h.4c.5 0 .9-.2.9-.6 0-.3-.3-.6-.8-.6h-.5v1.2zm-.1 2.1h-.9v-3.8c.3-.1.8-.1 1.4-.1.7 0 1 .1 1.3.3.2.2.4.5.4.8 0 .4-.3.7-.8.9.4.1.6.4.7.9.1.6.2.8.3.9h-.9c-.1-.1-.2-.5-.3-.9-.1-.4-.3-.6-.8-.6h-.4v1.6zm-2.3-2c0 1.7 1.2 3 2.9 3 1.6 0 2.9-1.3 2.9-3s-1.2-3-2.9-3c-1.6 0-2.9 1.4-2.9 3m6.8 0c0 2.1-1.7 3.8-3.8 3.8-2.2 0-3.9-1.7-3.9-3.8 0-2.1 1.7-3.8 3.9-3.8 2.1.1 3.8 1.8 3.8 3.8"/></svg>